<svg width="400" height="300" viewBox="0 0 400 300" fill="none" xmlns="http://www.w3.org/2000/svg">
  <!-- Imagen: Inmobiliario - Edificios y propiedades -->
  <g>
    <!-- Edificio 1 -->
    <rect x="50" y="100" width="80" height="150" fill="#2D6A4F"/>
    <rect x="60" y="110" width="15" height="15" fill="#74C69D"/>
    <rect x="85" y="110" width="15" height="15" fill="#74C69D"/>
    <rect x="110" y="110" width="15" height="15" fill="#74C69D"/>
    
    <rect x="60" y="135" width="15" height="15" fill="#74C69D"/>
    <rect x="85" y="135" width="15" height="15" fill="#74C69D"/>
    <rect x="110" y="135" width="15" height="15" fill="#74C69D"/>
    
    <rect x="60" y="160" width="15" height="15" fill="#74C69D"/>
    <rect x="85" y="160" width="15" height="15" fill="#74C69D"/>
    <rect x="110" y="160" width="15" height="15" fill="#74C69D"/>
    
    <rect x="60" y="185" width="15" height="15" fill="#74C69D"/>
    <rect x="85" y="185" width="15" height="15" fill="#74C69D"/>
    <rect x="110" y="185" width="15" height="15" fill="#74C69D"/>
    
    <rect x="60" y="210" width="15" height="15" fill="#74C69D"/>
    <rect x="85" y="210" width="15" height="15" fill="#74C69D"/>
    <rect x="110" y="210" width="15" height="15" fill="#74C69D"/>
    
    <rect x="75" y="225" width="25" height="25" fill="#1B4332"/>
    
    <!-- Edificio 2 -->
    <rect x="150" y="80" width="90" height="170" fill="#1B4332"/>
    <rect x="160" y="90" width="18" height="18" fill="#40916C"/>
    <rect x="188" y="90" width="18" height="18" fill="#40916C"/>
    <rect x="216" y="90" width="18" height="18" fill="#40916C"/>
    
    <rect x="160" y="118" width="18" height="18" fill="#40916C"/>
    <rect x="188" y="118" width="18" height="18" fill="#40916C"/>
    <rect x="216" y="118" width="18" height="18" fill="#40916C"/>
    
    <rect x="160" y="146" width="18" height="18" fill="#40916C"/>
    <rect x="188" y="146" width="18" height="18" fill="#40916C"/>
    <rect x="216" y="146" width="18" height="18" fill="#40916C"/>
    
    <rect x="160" y="174" width="18" height="18" fill="#40916C"/>
    <rect x="188" y="174" width="18" height="18" fill="#40916C"/>
    <rect x="216" y="174" width="18" height="18" fill="#40916C"/>
    
    <rect x="160" y="202" width="18" height="18" fill="#40916C"/>
    <rect x="188" y="202" width="18" height="18" fill="#40916C"/>
    <rect x="216" y="202" width="18" height="18" fill="#40916C"/>
    
    <rect x="182" y="225" width="30" height="25" fill="#0D3B2E"/>
    
    <!-- Casa -->
    <g transform="translate(260, 150)">
      <!-- Techo -->
      <path d="M 50 20 L 10 60 L 90 60 Z" fill="#2D6A4F"/>
      <!-- Estructura -->
      <rect x="20" y="60" width="60" height="70" fill="#40916C"/>
      <!-- Puerta -->
      <rect x="38" y="95" width="24" height="35" fill="#1B4332"/>
      <!-- Ventanas -->
      <rect x="25" y="70" width="15" height="15" fill="#74C69D"/>
      <rect x="60" y="70" width="15" height="15" fill="#74C69D"/>
      <!-- Chimenea -->
      <rect x="65" y="35" width="8" height="25" fill="#1B4332"/>
    </g>
    
    <!-- Suelo -->
    <rect x="0" y="250" width="400" height="5" fill="#1B4332" opacity="0.3"/>
    
    <!-- Ãrbol decorativo -->
    <circle cx="30" cy="230" r="15" fill="#52B788" opacity="0.6"/>
    <rect x="27" y="230" width="6" height="20" fill="#2D6A4F" opacity="0.6"/>
  </g>
</svg>
